<svg width="284" height="206" viewBox="0 0 284 206" fill="none" xmlns="http://www.w3.org/2000/svg">
<path d="M208.871 0.117737H0.0891418V133.133H208.871V0.117737Z" fill="#E6E6E6"/>
<path d="M202.901 16.8011H6.05922V125.263H202.901V16.8011Z" fill="white"/>
<path d="M208.782 0H0V8.82349H208.782V0Z" fill="#FFD6BA"/>
<path d="M6.59134 6.1464C7.49927 6.1464 8.23529 5.41422 8.23529 4.51104C8.23529 3.60785 7.49927 2.87567 6.59134 2.87567C5.68341 2.87567 4.94739 3.60785 4.94739 4.51104C4.94739 5.41422 5.68341 6.1464 6.59134 6.1464Z" fill="white"/>
<path d="M12.8314 6.1464C13.7393 6.1464 14.4753 5.41422 14.4753 4.51104C14.4753 3.60785 13.7393 2.87567 12.8314 2.87567C11.9234 2.87567 11.1874 3.60785 11.1874 4.51104C11.1874 5.41422 11.9234 6.1464 12.8314 6.1464Z" fill="white"/>
<path d="M19.0714 6.1464C19.9793 6.1464 20.7154 5.41422 20.7154 4.51104C20.7154 3.60785 19.9793 2.87567 19.0714 2.87567C18.1635 2.87567 17.4275 3.60785 17.4275 4.51104C17.4275 5.41422 18.1635 6.1464 19.0714 6.1464Z" fill="white"/>
<path d="M68.7778 25.7221H30.2784V67.2722H68.7778V25.7221Z" fill="#E6E6E6"/>
<path d="M123.729 25.7221H85.23V67.2722H123.729V25.7221Z" fill="#E6E6E6"/>
<path d="M178.681 25.7221H140.182V67.2722H178.681V25.7221Z" fill="#E6E6E6"/>
<path d="M68.7778 74.7931H30.2784V116.343H68.7778V74.7931Z" fill="#E6E6E6"/>
<path d="M123.729 74.7931H85.23V116.343H123.729V74.7931Z" fill="#E6E6E6"/>
<path d="M178.681 74.7931H140.182V116.343H178.681V74.7931Z" fill="#E6E6E6"/>
<path d="M94.5353 85.4717L101.57 82.7053L102.388 96.5376C102.388 96.5376 103.86 100.769 103.369 102.396C103.369 102.396 103.696 105.162 102.878 105.325C102.06 105.488 99.7701 105.813 99.6065 105.651C99.4429 105.488 99.4429 105 99.4429 105C99.4429 105 97.8071 106.139 97.6435 107.441C97.6435 107.441 90.7728 109.556 90.6092 107.603C90.4456 105.651 94.0446 104.023 94.0446 104.023L96.8255 99.7922L94.5353 85.4717Z" fill="white"/>
<path d="M109.422 85.4717L116.456 82.7053L117.274 96.5376C117.274 96.5376 118.746 100.769 118.255 102.396C118.255 102.396 118.583 105.162 117.765 105.325C116.947 105.488 114.657 105.813 114.493 105.651C114.329 105.488 114.329 105 114.329 105C114.329 105 112.694 106.139 112.53 107.441C112.53 107.441 105.659 109.556 105.496 107.603C105.332 105.651 108.931 104.023 108.931 104.023L111.712 99.7922L109.422 85.4717Z" fill="white"/>
<path d="M110.11 32.0561C110.11 32.0561 108.612 36.2193 110.347 38.0968L108.901 43.0424C108.901 43.0424 114.041 58.3833 112.573 60.5261C112.573 60.5261 107.089 63.2534 96.123 59.5521L100.578 42.3606L99.9417 35.1042L100.823 31.6951L102.781 31.5003C102.781 31.5003 101.606 35.8834 103.76 36.5652C105.914 37.247 108.016 31.6097 108.016 31.6097L110.11 32.0561Z" fill="#3F3D56"/>
<path d="M40.9392 58.9326L42.8294 59.7018L51.8505 47.9074L54.6857 61.753L56.5759 61.4111C57.7884 49.4744 58.7771 37.299 57.5639 31.5405L50.5618 31.2414L47.3829 41.3264L45.8364 48.1638L40.9392 58.9326Z" fill="white"/>
<path d="M155.659 31.4448C155.659 31.4448 153.079 35.0123 153.205 36.4518C153.331 37.8913 154.966 61.3618 154.966 61.3618L158.804 61.5495L157.672 44.6508L158.616 40.0819L160.944 61.3618L165.662 61.4869L161.447 33.8857L160.629 31.4448L155.659 31.4448Z" fill="white"/>
<path d="M170.238 88.9163C169.553 88.0986 168.376 87.6566 167.245 87.4177C167.279 87.3154 163.807 86.602 163.749 86.749L162.44 85.712L158.419 87.7889L156.16 86.2589L155.11 86.6294C155.153 86.4453 151.852 87.0139 151.852 87.0139C151.222 87.0364 150.416 87.0757 149.515 87.1447C146.358 87.3863 146.115 95.5195 146.115 95.5195C147.568 94.9284 149.116 94.6058 150.685 94.5676L151.539 104.297C155.927 103.922 160.53 104.358 165.3 105.424L167.537 97.7766L172.748 95.761C172.748 95.761 171.857 90.8489 170.238 88.9163Z" fill="#3F3D56"/>
<path d="M58.4325 84.2841C57.8681 83.6105 56.898 83.2462 55.9664 83.0494C55.9943 82.9651 53.1331 82.3773 53.0853 82.4984L52.007 81.644L48.6943 83.3552L46.8326 82.0946L45.9679 82.3999C46.0031 82.2482 43.2833 82.7167 43.2833 82.7167C42.7638 82.7352 42.1002 82.7676 41.3574 82.8244C38.7561 83.0235 38.556 89.7249 38.556 89.7249C39.7529 89.2379 41.029 88.9721 42.3218 88.9406L43.0249 108.563C46.6411 108.255 50.4337 108.614 54.3638 109.492L56.2071 91.5847L60.5002 89.924C60.5002 89.924 59.7665 85.8766 58.4325 84.2841Z" fill="white"/>
<path d="M198.509 197.349L172.465 202.651L171.872 202.591L148.985 200.293V171.441L177.002 166.729L197.325 169.087L197.333 169.215V169.275L198.509 197.349Z" fill="#E6E6E6"/>
<path opacity="0.1" d="M198.509 197.349L172.465 202.651L171.872 202.591V173.013L197.333 169.215L198.509 197.349Z" fill="black"/>
<path opacity="0.05" d="M197.333 169.275L197.325 169.283L171.872 173.013L148.985 171.441L177.002 166.729L197.325 169.087L197.333 169.215V169.275Z" fill="black"/>
<path d="M167.97 182.539L152.136 181.511L151.651 188.904L167.485 189.932L167.97 182.539Z" fill="white"/>
<path d="M164.096 184.708L155.694 184.163L155.525 186.735L163.927 187.28L164.096 184.708Z" fill="#FFD6BA"/>
<path d="M233.806 197.349L207.763 202.651L207.169 202.591L184.283 200.293V171.441L212.3 166.729L232.623 169.087L232.63 169.215V169.275L233.806 197.349Z" fill="#FFD6BA"/>
<path opacity="0.1" d="M233.806 197.349L207.763 202.651L207.169 202.591V173.013L232.63 169.215L233.806 197.349Z" fill="black"/>
<path opacity="0.05" d="M232.63 169.275L232.623 169.283L207.169 173.013L184.283 171.441L212.3 166.729L232.623 169.087L232.63 169.215V169.275Z" fill="black"/>
<path d="M203.268 182.539L187.434 181.511L186.949 188.904L202.783 189.932L203.268 182.539Z" fill="white"/>
<path d="M199.394 184.708L190.992 184.163L190.823 186.734L199.225 187.28L199.394 184.708Z" fill="#FFD6BA"/>
<path d="M252.651 53.3531C252.651 53.3531 257.246 65.1616 248.822 65.1616C240.398 65.1616 261.841 76.97 270.266 70.1135C278.69 63.257 273.712 62.876 273.712 62.876C273.712 62.876 262.607 64.0188 262.99 54.1149L252.651 53.3531Z" fill="#FFB8B8"/>
<path d="M258.637 56.9075C266.117 56.9075 272.18 50.876 272.18 43.4357C272.18 35.9955 266.117 29.964 258.637 29.964C251.158 29.964 245.095 35.9955 245.095 43.4357C245.095 50.876 251.158 56.9075 258.637 56.9075Z" fill="#2F2E41"/>
<path d="M250.354 102.492L235.803 139.822C235.803 139.822 228.528 151.249 231.208 162.677C233.888 174.104 241.254 194.902 241.254 194.902C241.254 194.902 246.819 196.311 246.436 191.359C246.053 186.407 246.674 162.399 240.93 155.923L264.139 129.537L264.905 159.629C264.905 159.629 263.373 173.342 263.756 179.437C264.139 185.532 264.905 195.817 264.905 195.817L269.5 195.055C269.5 195.055 275.699 166.998 274.933 157.856C274.933 157.856 289.16 113.436 274.609 102.77L250.354 102.492Z" fill="#2F2E41"/>
<path d="M242.854 194.84C242.854 194.84 240.98 194.366 240.765 196.075C240.549 197.785 236.608 205.386 240.722 205.767C244.836 206.147 246.26 202.318 246.949 199.626C247.638 196.934 247.899 196.78 248.474 196.264C249.05 195.748 250.419 192.923 248.701 192.708C246.983 192.493 246.102 190.812 246.102 190.812C246.102 190.812 245.56 195.526 242.854 194.84Z" fill="#2F2E41"/>
<path d="M267.904 193.518C267.904 193.518 264.43 193.025 264.678 194.259C264.926 195.494 264.182 200.678 264.678 201.172C265.174 201.666 266.167 202.653 266.167 203.394C266.167 204.135 266.415 206.604 270.635 205.863C274.854 205.122 273.861 201.419 273.613 200.925C273.365 200.431 270.386 197.962 270.635 196.481C270.883 195 269.394 192.531 267.904 193.518Z" fill="#2F2E41"/>
<path d="M258.804 58.3853C263.985 58.3853 268.185 54.2076 268.185 49.0542C268.185 43.9007 263.985 39.7231 258.804 39.7231C253.624 39.7231 249.424 43.9007 249.424 49.0542C249.424 54.2076 253.624 58.3853 258.804 58.3853Z" fill="#FFB8B8"/>
<path d="M267.777 61.9238C267.777 61.9238 271.048 68.363 261.187 68.5456C258.155 68.6017 254.55 66.4039 253.062 63.776C252.185 62.2278 251.963 64.366 250.545 64.2093C247.86 63.9125 244.992 65.0206 242.425 66.3784C242.094 66.5534 241.833 66.8375 241.689 67.1822C241.545 67.5269 241.526 67.9107 241.634 68.268C243.581 74.6927 249.14 105.598 249.998 107.28C252.189 111.577 275.904 104.381 275.904 104.381C276.229 92.6895 271.963 76.3321 279.466 64.4359C277.816 63.2021 275.916 62.3387 273.898 61.905C271.88 61.4714 269.792 61.4778 267.777 61.9238V61.9238Z" fill="#575A89"/>
<path d="M267.576 41.8788L260.704 38.2979L251.213 39.7627L249.25 48.3899L254.138 48.2027L255.503 45.0332V48.1506L257.758 48.0642L259.067 43.0182L259.886 48.3899L267.903 48.2269L267.576 41.8788Z" fill="#2F2E41"/>
<path d="M259.35 33.5092C262.368 33.5092 264.815 31.0754 264.815 28.0732C264.815 25.071 262.368 22.6372 259.35 22.6372C256.332 22.6372 253.886 25.071 253.886 28.0732C253.886 31.0754 256.332 33.5092 259.35 33.5092Z" fill="#2F2E41"/>
<path d="M252.46 26.4188C252.46 25.1204 252.927 23.8649 253.777 22.8793C254.627 21.8937 255.803 21.2432 257.093 21.0454C256.315 20.9269 255.52 20.9771 254.762 21.1927C254.005 21.4083 253.304 21.7842 252.707 22.2945C252.109 22.8048 251.63 23.4376 251.301 24.1494C250.972 24.8613 250.802 25.6354 250.802 26.4188C250.802 27.2022 250.972 27.9763 251.301 28.6881C251.63 29.4 252.109 30.0328 252.707 30.5431C253.304 31.0534 254.005 31.4292 254.762 31.6448C255.52 31.8604 256.315 31.9107 257.093 31.7922C255.803 31.5944 254.627 30.9438 253.777 29.9583C252.927 28.9727 252.46 27.7172 252.46 26.4188V26.4188Z" fill="#2F2E41"/>
<path d="M284 155.793L257.957 161.095L257.363 161.035L234.477 158.737V129.885L262.493 125.173L282.817 127.531L282.824 127.659V127.719L284 155.793Z" fill="#E6E6E6"/>
<path opacity="0.1" d="M284 155.793L257.957 161.095L257.363 161.035V131.457L282.824 127.659L284 155.793Z" fill="black"/>
<path opacity="0.05" d="M282.824 127.719L282.817 127.727L257.363 131.457L234.477 129.885L262.493 125.173L282.817 127.531L282.824 127.659V127.719Z" fill="black"/>
<path d="M253.462 140.983L237.628 139.955L237.143 147.348L252.977 148.376L253.462 140.983Z" fill="white"/>
<path d="M249.587 143.152L241.186 142.607L241.017 145.178L249.419 145.724L249.587 143.152Z" fill="#FFD6BA"/>
<path d="M243.431 122.476C243.431 122.476 233.858 130.094 238.07 132.76C242.282 135.427 247.26 122.476 247.26 122.476H243.431Z" fill="#FFB8B8"/>
<path d="M243.845 66.0466C243.349 65.4906 237.087 68.6674 238.016 72.8115L238.453 101.525C238.453 101.525 236.155 125.142 241.899 125.142C247.643 125.142 246.965 125.936 247.731 124.032C248.497 122.127 248.702 105.992 248.702 105.992L243.845 66.0466Z" fill="#575A89"/>
<path d="M273.461 119.899C273.461 119.899 278.439 132.85 282.651 130.183C286.863 127.517 277.29 119.899 277.29 119.899H273.461Z" fill="#FFB8B8"/>
<path d="M274.609 103.737C274.609 103.737 272.224 119.55 272.99 121.455C273.756 123.359 273.078 122.565 278.822 122.565C284.565 122.565 282.268 98.948 282.268 98.948L282.705 70.2344C283.633 66.0902 277.372 62.9135 276.876 63.4694L271.371 82.1535L274.609 103.737Z" fill="#575A89"/>
</svg>
